<svg xmlns="http://www.w3.org/2000/svg" xmlns:xlink="http://www.w3.org/1999/xlink" version="1.1" x="0px" y="0px" viewBox="0 0 90 112.5" enable-background="new 0 0 90 90" xml:space="preserve">
    <g>
        <path d="M44.999,17.664c15.156,0,27.375,12.213,27.375,27.364c0,15.156-12.219,27.37-27.375,27.37   c-15.151,0-27.37-12.214-27.37-27.37C17.629,29.877,29.848,17.664,44.999,17.664z M44.999,11.169   c-18.667,0-33.865,15.198-33.865,33.858c0,18.667,15.198,33.87,33.865,33.87s33.87-15.203,33.87-33.87   C78.869,26.367,63.666,11.169,44.999,11.169z"/>
        <path d="M63.358,23.373c-0.844,0.025-1.646,0.374-2.234,0.983L24.285,61.117c-1.323,1.256-1.349,3.36-0.058,4.651   c1.287,1.292,3.391,1.271,4.651-0.052l36.834-36.761C67.838,26.888,66.322,23.289,63.358,23.373z"/>
    </g>
</svg>